<?xml version="1.0" encoding="UTF-8"?>
<!DOCTYPE svg PUBLIC "-//W3C//DTD SVG 1.1//EN" "http://www.w3.org/Graphics/SVG/1.1/DTD/svg11.dtd">
<svg xmlns="http://www.w3.org/2000/svg" version="1.1" width="3591px" height="927px" style="shape-rendering:geometricPrecision; text-rendering:geometricPrecision; image-rendering:optimizeQuality; fill-rule:evenodd; clip-rule:evenodd" xmlns:xlink="http://www.w3.org/1999/xlink">
<g><path style="opacity:0.986" fill="#4c4c4c" d="M 1984.5,-0.5 C 1996.5,-0.5 2008.5,-0.5 2020.5,-0.5C 2035.89,1.23652 2050.55,5.73652 2064.5,13C 2072.25,17.9587 2080.08,22.792 2088,27.5C 2076.57,49.0126 2064.07,70.0126 2050.5,90.5C 2030.88,75.9047 2008.88,69.738 1984.5,72C 1949.66,79.5101 1930.16,101.01 1926,136.5C 1924.46,150.801 1925.8,164.801 1930,178.5C 1939.28,197.902 1954.78,207.902 1976.5,208.5C 1999.24,207.983 2019.07,200.316 2036,185.5C 2043.24,206.545 2050.07,227.712 2056.5,249C 2055.56,251.32 2053.89,252.987 2051.5,254C 2014.22,274.923 1974.56,281.923 1932.5,275C 1876.08,261.061 1847.75,224.894 1847.5,166.5C 1848.56,122.15 1862.06,82.15 1888,46.5C 1905.36,26.4851 1926.86,12.9851 1952.5,6C 1963.16,3.10129 1973.83,0.934628 1984.5,-0.5 Z"/></g>
<g><path style="opacity:0.988" fill="#4c4c4c" d="M 2813.5,-0.5 C 2826.17,-0.5 2838.83,-0.5 2851.5,-0.5C 2877.6,1.96414 2900.43,11.9641 2920,29.5C 2920.67,30.5 2920.67,31.5 2920,32.5C 2907.97,51.7014 2896.13,71.0347 2884.5,90.5C 2883.64,91.5827 2882.64,91.7494 2881.5,91C 2846.93,66.4163 2812.26,66.4163 2777.5,91C 2751.42,112.566 2741.59,140.066 2748,173.5C 2752.71,188.547 2762.55,198.714 2777.5,204C 2791.88,208.472 2806.55,209.972 2821.5,208.5C 2825.17,181.833 2828.83,155.167 2832.5,128.5C 2857.5,128.5 2882.5,128.5 2907.5,128.5C 2901.62,168.482 2895.79,208.482 2890,248.5C 2889.73,250.329 2888.89,251.829 2887.5,253C 2838.85,280.617 2787.52,287.283 2733.5,273C 2692.85,257.918 2669.68,228.751 2664,185.5C 2658.81,127.059 2677.31,77.5589 2719.5,37C 2747.27,15.5761 2778.6,3.07612 2813.5,-0.5 Z"/></g>
<g><path style="opacity:0.999" fill="#fbd304" d="M 822.5,74.5 C 786.53,327.458 750.697,580.458 715,833.5C 705.406,866.764 683.572,886.264 649.5,892C 451.834,892.5 254.167,892.667 56.5,892.5C 52.4862,892.666 48.4862,892.499 44.5,892C 41.8807,891.849 39.5473,891.015 37.5,889.5C 58.6667,854.5 79.8333,819.5 101,784.5C 136.154,729.653 177.654,679.819 225.5,635C 270.843,596.169 318.509,560.502 368.5,528C 405.337,506.414 442.337,485.081 479.5,464C 518.141,445.179 557.141,427.179 596.5,410C 618.825,399.666 638.992,386.166 657,369.5C 665.161,360.179 672.328,350.179 678.5,339.5C 679.167,339.5 679.5,339.167 679.5,338.5C 687.402,325.693 693.402,312.026 697.5,297.5C 695.473,297.338 693.473,297.505 691.5,298C 607.51,339.441 519.51,369.108 427.5,387C 376.662,398.418 325.662,409.084 274.5,419C 258.136,421.931 244.302,429.431 233,441.5C 225.607,451.896 218.607,462.563 212,473.5C 200.92,486.918 187.753,497.751 172.5,506C 152.431,516.69 131.431,525.023 109.5,531C 88.003,536.249 66.3363,540.415 44.5,543.5C 42.8008,543.66 41.1341,543.494 39.5,543C 62.5134,382.573 85.3467,222.073 108,61.5C 116.382,28.4514 137.215,8.28471 170.5,1C 373.5,0.333333 576.5,0.333333 779.5,1C 812.898,10.086 827.731,31.9193 824,66.5C 823.728,69.2538 823.228,71.9205 822.5,74.5 Z"/></g>
<g><path style="opacity:0.984" fill="#4c4c4c" d="M 1120.5,2.5 C 1145.83,2.5 1171.17,2.5 1196.5,2.5C 1188,69.8149 1179.67,137.148 1171.5,204.5C 1197.17,204.5 1222.83,204.5 1248.5,204.5C 1245.45,228.543 1242.11,252.543 1238.5,276.5C 1187.5,276.613 1136.5,276.28 1085.5,275.5C 1096.93,184.428 1108.59,93.4283 1120.5,2.5 Z"/></g>
<g><path style="opacity:0.987" fill="#4c4c4c" d="M 1377.5,2.5 C 1413.5,2.5 1449.5,2.5 1485.5,2.5C 1498.41,93.5108 1511.41,184.511 1524.5,275.5C 1499.49,275.833 1474.49,275.5 1449.5,274.5C 1446.37,256.578 1443.7,238.578 1441.5,220.5C 1414.83,220.167 1388.16,220.5 1361.5,221.5C 1353.83,239.5 1346.17,257.5 1338.5,275.5C 1312.83,276.833 1287.17,276.833 1261.5,275.5C 1300.45,184.594 1339.12,93.5942 1377.5,2.5 Z M 1420.5,81.5 C 1424.71,105.954 1428.38,130.62 1431.5,155.5C 1417.5,155.667 1403.5,155.5 1389.5,155C 1400.33,130.685 1410.66,106.185 1420.5,81.5 Z"/></g>
<g><path style="opacity:0.989" fill="#4c4c4c" d="M 1593.5,2.5 C 1618.18,2.16691 1642.84,2.50024 1667.5,3.5C 1687.21,47.9222 1707.71,91.9222 1729,135.5C 1730.58,134.624 1731.58,133.291 1732,131.5C 1737.92,88.502 1743.75,45.502 1749.5,2.5C 1774.17,2.5 1798.83,2.5 1823.5,2.5C 1811.07,93.4874 1798.74,184.487 1786.5,275.5C 1761.16,275.667 1735.83,275.5 1710.5,275C 1689.28,230.02 1668.45,184.853 1648,139.5C 1641.36,184.827 1634.86,230.16 1628.5,275.5C 1604.17,275.5 1579.83,275.5 1555.5,275.5C 1567.98,184.476 1580.65,93.4757 1593.5,2.5 Z"/></g>
<g><path style="opacity:0.988" fill="#4c4c4c" d="M 2192.5,2.5 C 2228.5,2.5 2264.5,2.5 2300.5,2.5C 2313.22,93.5386 2326.22,184.539 2339.5,275.5C 2314.5,275.667 2289.5,275.5 2264.5,275C 2261.42,256.93 2258.75,238.763 2256.5,220.5C 2229.83,220.333 2203.16,220.5 2176.5,221C 2168.74,238.775 2161.07,256.609 2153.5,274.5C 2127.84,275.666 2102.17,275.833 2076.5,275C 2115.27,184.201 2153.93,93.3672 2192.5,2.5 Z M 2235.5,81.5 C 2239.58,105.972 2243.24,130.639 2246.5,155.5C 2232.48,155.833 2218.48,155.499 2204.5,154.5C 2215.12,130.261 2225.45,105.928 2235.5,81.5 Z"/></g>
<g><path style="opacity:0.986" fill="#4c4c4c" d="M 2406.5,2.5 C 2430.84,2.33336 2455.17,2.50003 2479.5,3C 2500.07,46.6386 2520.24,90.4719 2540,134.5C 2543.55,135.972 2545.22,134.638 2545,130.5C 2550.79,87.817 2556.62,45.1503 2562.5,2.5C 2587.17,2.5 2611.83,2.5 2636.5,2.5C 2624.05,93.4979 2611.55,184.498 2599,275.5C 2573.91,276.661 2548.74,276.827 2523.5,276C 2502.81,230.789 2481.98,185.622 2461,140.5C 2453.99,185.763 2447.49,231.096 2441.5,276.5C 2416.82,276.833 2392.16,276.5 2367.5,275.5C 2380.78,184.549 2393.78,93.5487 2406.5,2.5 Z"/></g>
<g><path style="opacity:0.985" fill="#4d4d4c" d="M 822.5,74.5 C 823.302,75.9516 823.802,77.6183 824,79.5C 824.667,86.5 824.667,93.5 824,100.5C 788,355.168 752,609.834 716,864.5C 707.91,898.091 687.076,918.757 653.5,926.5C 450.5,926.5 247.5,926.5 44.5,926.5C 42.2603,925.736 39.9269,924.902 37.5,924C 44.4731,913.887 50.8064,903.387 56.5,892.5C 254.167,892.667 451.834,892.5 649.5,892C 683.572,886.264 705.406,866.764 715,833.5C 750.697,580.458 786.53,327.458 822.5,74.5 Z"/></g>
<g><path style="opacity:0.986" fill="#4d4d4c" d="M 679.5,338.5 C 678.833,338.5 678.5,338.833 678.5,339.5C 630.68,362.164 581.347,380.998 530.5,396C 445.447,418.011 359.78,437.344 273.5,454C 257.541,457.226 244.041,464.726 233,476.5C 226,487.167 219,497.833 212,508.5C 201.637,520.866 189.47,531.033 175.5,539C 144.088,555.915 110.755,567.249 75.5,573C 63.6334,574.933 51.8001,576.766 40,578.5C 41.2547,566.876 42.7547,555.21 44.5,543.5C 66.3363,540.415 88.003,536.249 109.5,531C 131.431,525.023 152.431,516.69 172.5,506C 187.753,497.751 200.92,486.918 212,473.5C 218.607,462.563 225.607,451.896 233,441.5C 244.302,429.431 258.136,421.931 274.5,419C 325.662,409.084 376.662,398.418 427.5,387C 519.51,369.108 607.51,339.441 691.5,298C 693.473,297.505 695.473,297.338 697.5,297.5C 693.402,312.026 687.402,325.693 679.5,338.5 Z"/></g>
<g><path style="opacity:0.986" fill="#4c4c4c" d="M 2458.5,385.5 C 2494.01,382.207 2526.01,391.04 2554.5,412C 2556.58,413.501 2557.92,415.501 2558.5,418C 2546.38,438.402 2533.88,458.568 2521,478.5C 2486.59,453.673 2451.75,453.173 2416.5,477C 2389.96,498.288 2379.79,525.788 2386,559.5C 2391.64,576.474 2403.14,587.307 2420.5,592C 2433.32,595.029 2446.32,596.196 2459.5,595.5C 2463.28,568.513 2466.94,541.513 2470.5,514.5C 2495.5,514.5 2520.5,514.5 2545.5,514.5C 2540.05,556.185 2533.71,597.685 2526.5,639C 2480.43,665.401 2431.43,673.068 2379.5,662C 2334.44,648.42 2308.61,618.254 2302,571.5C 2297.14,518.402 2312.48,472.069 2348,432.5C 2373.74,408.217 2404.24,393.384 2439.5,388C 2445.99,387.216 2452.32,386.383 2458.5,385.5 Z"/></g>
<g><path style="opacity:0.987" fill="#4c4c4c" d="M 2850.5,386.5 C 2889.39,381.883 2924.06,391.55 2954.5,415.5C 2942.32,436.537 2929.65,457.203 2916.5,477.5C 2896.89,462.909 2874.89,456.742 2850.5,459C 2820.3,464.868 2801.47,482.701 2794,512.5C 2790.43,529.249 2790.77,545.915 2795,562.5C 2803.87,583.622 2819.87,594.622 2843,595.5C 2865.54,594.881 2885.21,587.214 2902,572.5C 2909.17,594.017 2916.34,615.517 2923.5,637C 2878.02,665.593 2829.69,671.927 2778.5,656C 2740.31,640.792 2719.15,612.625 2715,571.5C 2711.15,520.066 2724.48,473.733 2755,432.5C 2772.38,413.384 2793.55,400.218 2818.5,393C 2829.21,390.358 2839.88,388.191 2850.5,386.5 Z"/></g>
<g><path style="opacity:0.988" fill="#4c4c4c" d="M 3109.5,386.5 C 3141.46,383.453 3170.79,390.619 3197.5,408C 3219.49,425.474 3231.99,448.308 3235,476.5C 3243.42,537.921 3225.25,589.755 3180.5,632C 3140.3,663.715 3094.97,674.381 3044.5,664C 3006.93,653.427 2983.09,629.26 2973,591.5C 2960.06,536.291 2970.39,485.958 3004,440.5C 3031.73,408.052 3066.89,390.052 3109.5,386.5 Z M 3103.5,449.5 C 3127.12,447.05 3143.29,456.716 3152,478.5C 3160,507.472 3158,535.806 3146,563.5C 3138.54,581.258 3126.04,594.091 3108.5,602C 3082.77,611.048 3064.27,603.215 3053,578.5C 3050.39,572.066 3048.72,565.399 3048,558.5C 3043.77,526.093 3051.1,496.76 3070,470.5C 3079.04,459.93 3090.21,452.93 3103.5,449.5 Z"/></g>
<g><path style="opacity:0.986" fill="#4c4c4c" d="M 1076.5,388.5 C 1101.83,388.5 1127.17,388.5 1152.5,388.5C 1149.3,415.553 1145.64,442.553 1141.5,469.5C 1141.83,470.5 1142.17,471.5 1142.5,472.5C 1168.51,445.16 1194.17,417.494 1219.5,389.5C 1248.83,388.333 1278.16,388.167 1307.5,389C 1272.26,428.813 1237.26,468.813 1202.5,509C 1228.29,559.422 1253.96,609.922 1279.5,660.5C 1249.84,661.667 1220.17,661.833 1190.5,661C 1171.87,622.91 1153.37,584.743 1135,546.5C 1133.89,544.963 1132.39,544.297 1130.5,544.5C 1125.35,583.524 1120.02,622.524 1114.5,661.5C 1088.83,661.667 1063.16,661.5 1037.5,661C 1050.82,570.25 1063.82,479.416 1076.5,388.5 Z"/></g>
<g><path style="opacity:0.987" fill="#4c4c4c" d="M 1337.5,388.5 C 1361.83,388.5 1386.17,388.5 1410.5,388.5C 1403.05,442.496 1395.55,496.496 1388,550.5C 1387.33,557.5 1387.33,564.5 1388,571.5C 1392.51,588.785 1403.85,597.118 1422,596.5C 1437.7,596.154 1449.36,589.154 1457,575.5C 1459.89,569.723 1462.22,563.723 1464,557.5C 1472.4,501.287 1479.9,444.954 1486.5,388.5C 1511.5,388.5 1536.5,388.5 1561.5,388.5C 1554.05,443.832 1546.55,499.165 1539,554.5C 1531.78,593.799 1512.28,625.299 1480.5,649C 1450.66,666.788 1418.66,672.122 1384.5,665C 1363.4,660.871 1345.24,651.371 1330,636.5C 1319.43,621.59 1313.77,604.923 1313,586.5C 1312.33,578.167 1312.33,569.833 1313,561.5C 1321.31,503.845 1329.47,446.178 1337.5,388.5 Z"/></g>
<g><path style="opacity:0.989" fill="#4c4c4c" d="M 1622.5,388.5 C 1646.84,388.333 1671.17,388.5 1695.5,389C 1716.19,432.553 1736.19,476.386 1755.5,520.5C 1757.17,520.5 1758.83,520.5 1760.5,520.5C 1766.09,476.811 1771.92,433.144 1778,389.5C 1802.76,388.339 1827.59,388.173 1852.5,389C 1839.7,479.454 1827.03,569.954 1814.5,660.5C 1789.17,661.833 1763.83,661.833 1738.5,660.5C 1718.27,615.714 1697.77,571.047 1677,526.5C 1669.72,571.304 1663.22,616.304 1657.5,661.5C 1632.83,661.5 1608.17,661.5 1583.5,661.5C 1596.41,570.478 1609.41,479.478 1622.5,388.5 Z"/></g>
<g><path style="opacity:0.985" fill="#4c4c4c" d="M 1912.5,388.5 C 1936.83,388.5 1961.17,388.5 1985.5,388.5C 1973.21,479.549 1960.54,570.549 1947.5,661.5C 1923.17,661.5 1898.83,661.5 1874.5,661.5C 1886.79,570.451 1899.46,479.451 1912.5,388.5 Z"/></g>
<g><path style="opacity:0.989" fill="#4c4c4c" d="M 2045.5,388.5 C 2070.18,388.167 2094.84,388.5 2119.5,389.5C 2139.61,432.714 2159.44,476.047 2179,519.5C 2180.36,520.38 2181.86,520.714 2183.5,520.5C 2189.59,476.513 2195.59,432.513 2201.5,388.5C 2226.17,388.5 2250.83,388.5 2275.5,388.5C 2262.92,479.466 2250.59,570.466 2238.5,661.5C 2213.16,661.667 2187.83,661.5 2162.5,661C 2141.67,615.851 2120.84,570.684 2100,525.5C 2093.36,570.821 2086.86,616.154 2080.5,661.5C 2056.17,661.5 2031.83,661.5 2007.5,661.5C 2019.98,570.476 2032.65,479.476 2045.5,388.5 Z"/></g>
<g><path style="opacity:0.987" fill="#4c4c4c" d="M 3590.5,388.5 C 3590.5,391.167 3590.5,393.833 3590.5,396.5C 3577.48,484.648 3564.81,572.982 3552.5,661.5C 3526.83,661.667 3501.16,661.5 3475.5,661C 3483.3,608.234 3490.97,555.4 3498.5,502.5C 3498.17,501.5 3497.83,500.5 3497.5,499.5C 3493.22,502.273 3489.39,505.607 3486,509.5C 3463.32,533.678 3440.49,557.678 3417.5,581.5C 3398.43,555.046 3379.6,528.38 3361,501.5C 3360.33,500.167 3359.67,500.167 3359,501.5C 3351.27,554.81 3343.77,608.144 3336.5,661.5C 3310.82,661.833 3285.16,661.5 3259.5,660.5C 3272.69,569.866 3285.69,479.199 3298.5,388.5C 3321.17,388.333 3343.84,388.5 3366.5,389C 3387.12,417.078 3407.62,445.245 3428,473.5C 3429.53,476.087 3431.69,476.92 3434.5,476C 3463.5,447 3492.5,418 3521.5,389C 3544.5,388.5 3567.5,388.333 3590.5,388.5 Z"/></g>
<g><path style="opacity:0.983" fill="#4c4c4c" d="M 2631.5,569.5 C 2669.74,567.573 2686.91,585.573 2683,623.5C 2674.69,650.964 2656.19,666.297 2627.5,669.5C 2600.6,667.437 2586.27,652.937 2584.5,626C 2587.67,596.673 2603.33,577.84 2631.5,569.5 Z"/></g>
<g><path style="opacity:0.964" fill="#4c4c4c" d="M 2985.5,766.5 C 3005.66,764.258 3022.66,770.424 3036.5,785C 3031.33,791.5 3026.17,798 3021,804.5C 3015.17,798.672 3008.34,794.505 3000.5,792C 2994.57,790.89 2988.91,791.556 2983.5,794C 2977.9,800.04 2978.23,805.707 2984.5,811C 2995.45,816.143 3006.12,821.809 3016.5,828C 3030.84,842.569 3033.34,859.069 3024,877.5C 3018.2,886.288 3010.03,891.454 2999.5,893C 2975.24,896.698 2955.24,889.365 2939.5,871C 2944.65,864.684 2950.32,858.85 2956.5,853.5C 2963.22,859.859 2970.89,864.692 2979.5,868C 2987.93,870.847 2995.43,869.347 3002,863.5C 3004.47,856.256 3002.3,850.756 2995.5,847C 2984.9,842.7 2974.9,837.366 2965.5,831C 2954.97,821.058 2951.13,808.892 2954,794.5C 2958.7,778.576 2969.2,769.243 2985.5,766.5 Z"/></g>
<g><path style="opacity:0.961" fill="#4c4c4c" d="M 2579.5,767.5 C 2587.75,767.184 2595.92,767.518 2604,768.5C 2614.14,809.709 2623.64,851.043 2632.5,892.5C 2624.17,892.5 2615.83,892.5 2607.5,892.5C 2605.5,883.167 2603.5,873.833 2601.5,864.5C 2586.5,864.333 2571.5,864.5 2556.5,865C 2551.83,874 2547.17,883 2542.5,892C 2533.84,892.5 2525.17,892.666 2516.5,892.5C 2537.21,850.747 2558.21,809.08 2579.5,767.5 Z M 2586.5,802.5 C 2587.65,802.791 2588.32,803.624 2588.5,805C 2591.28,816.424 2593.62,827.924 2595.5,839.5C 2586.81,839.831 2578.14,839.498 2569.5,838.5C 2575.72,826.72 2581.39,814.72 2586.5,802.5 Z"/></g>
<g><path style="opacity:0.962" fill="#4d4d4d" d="M 2879.5,767.5 C 2887.94,766.884 2896.11,767.551 2904,769.5C 2913.98,810.408 2923.48,851.408 2932.5,892.5C 2924.14,892.831 2915.81,892.498 2907.5,891.5C 2905.03,882.601 2903.03,873.601 2901.5,864.5C 2886.5,864.333 2871.5,864.5 2856.5,865C 2851.83,874 2847.17,883 2842.5,892C 2833.48,892.832 2824.48,892.665 2815.5,891.5C 2836.85,850.14 2858.18,808.807 2879.5,767.5 Z M 2886.5,802.5 C 2887.12,802.611 2887.62,802.944 2888,803.5C 2890.82,815.447 2893.32,827.447 2895.5,839.5C 2886.81,839.831 2878.14,839.498 2869.5,838.5C 2875.18,826.478 2880.84,814.478 2886.5,802.5 Z"/></g>
<g><path style="opacity:0.961" fill="#4c4c4c" d="M 3096.5,767.5 C 3104.83,767.5 3113.17,767.5 3121.5,767.5C 3130.66,808.945 3140.32,850.278 3150.5,891.5C 3141.86,892.498 3133.19,892.831 3124.5,892.5C 3122.97,883.399 3120.97,874.399 3118.5,865.5C 3103.51,864.334 3088.51,864.167 3073.5,865C 3069.25,873.929 3064.92,882.763 3060.5,891.5C 3051.52,892.498 3042.52,892.832 3033.5,892.5C 3054.22,850.72 3075.22,809.053 3096.5,767.5 Z M 3104.5,801.5 C 3107.68,813.863 3110.68,826.363 3113.5,839C 3104.48,839.832 3095.48,839.665 3086.5,838.5C 3092.78,826.267 3098.78,813.934 3104.5,801.5 Z"/></g>
<g><path style="opacity:0.964" fill="#4c4c4c" d="M 2133.5,768.5 C 2142.5,768.5 2151.5,768.5 2160.5,768.5C 2166.89,785.504 2173.39,802.504 2180,819.5C 2191.38,802.58 2202.88,785.747 2214.5,769C 2224.16,768.5 2233.83,768.334 2243.5,768.5C 2237.65,809.807 2231.98,851.141 2226.5,892.5C 2218.17,892.5 2209.83,892.5 2201.5,892.5C 2204.72,866.47 2207.89,840.47 2211,814.5C 2199.41,831.342 2187.58,848.009 2175.5,864.5C 2173.85,863.221 2172.69,861.555 2172,859.5C 2165.67,844.833 2159.33,830.167 2153,815.5C 2148.75,841.081 2144.92,866.748 2141.5,892.5C 2133.17,892.5 2124.83,892.5 2116.5,892.5C 2122.54,851.221 2128.21,809.887 2133.5,768.5 Z"/></g>
<g><path style="opacity:0.958" fill="#4c4c4c" d="M 2268.5,768.5 C 2295.83,768.5 2323.17,768.5 2350.5,768.5C 2349.22,776.798 2348.22,785.131 2347.5,793.5C 2328.17,793.5 2308.83,793.5 2289.5,793.5C 2288.5,801.5 2287.5,809.5 2286.5,817.5C 2303.17,817.5 2319.83,817.5 2336.5,817.5C 2335.41,825.822 2334.41,834.155 2333.5,842.5C 2316.5,842.5 2299.5,842.5 2282.5,842.5C 2281.41,850.822 2280.41,859.155 2279.5,867.5C 2298.83,867.5 2318.17,867.5 2337.5,867.5C 2336.09,875.778 2335.09,884.111 2334.5,892.5C 2306.83,892.5 2279.17,892.5 2251.5,892.5C 2256.79,851.113 2262.46,809.779 2268.5,768.5 Z"/></g>
<g><path style="opacity:0.965" fill="#4c4c4c" d="M 2371.5,768.5 C 2386.5,768.333 2401.5,768.5 2416.5,769C 2444.02,774.184 2459.52,790.684 2463,818.5C 2466.21,844.912 2457.38,866.079 2436.5,882C 2428.74,886.587 2420.4,889.587 2411.5,891C 2392.53,892.358 2373.53,892.858 2354.5,892.5C 2359.68,851.087 2365.34,809.754 2371.5,768.5 Z M 2392.5,793.5 C 2424.51,789.678 2439.34,803.678 2437,835.5C 2432.62,852.551 2421.78,862.718 2404.5,866C 2397.17,866.5 2389.84,866.666 2382.5,866.5C 2386.02,842.196 2389.35,817.863 2392.5,793.5 Z"/></g>
<g><path style="opacity:0.959" fill="#4c4c4c" d="M 2492.5,768.5 C 2500.83,768.5 2509.17,768.5 2517.5,768.5C 2512.02,809.863 2506.35,851.196 2500.5,892.5C 2492.17,892.5 2483.83,892.5 2475.5,892.5C 2481.54,851.221 2487.21,809.887 2492.5,768.5 Z"/></g>
<g><path style="opacity:0.964" fill="#4c4c4c" d="M 2709.5,768.5 C 2718.19,768.169 2726.86,768.502 2735.5,769.5C 2741.9,785.956 2748.56,802.289 2755.5,818.5C 2767.03,802.137 2778.36,785.637 2789.5,769C 2799.16,768.5 2808.83,768.334 2818.5,768.5C 2813.02,809.859 2807.35,851.193 2801.5,892.5C 2793.17,892.5 2784.83,892.5 2776.5,892.5C 2780.08,866.851 2783.25,841.185 2786,815.5C 2774.33,831.997 2762.49,848.33 2750.5,864.5C 2742.73,848.066 2735.23,831.399 2728,814.5C 2724.15,840.14 2720.48,865.807 2717,891.5C 2708.92,892.482 2700.75,892.816 2692.5,892.5C 2697.61,851.079 2703.27,809.746 2709.5,768.5 Z"/></g>
<g><path style="opacity:0.962" fill="#4c4c4c" d="M 3226.5,768.5 C 3234.83,768.5 3243.17,768.5 3251.5,768.5C 3248.81,785.798 3246.65,803.131 3245,820.5C 3260.17,803.333 3275.33,786.167 3290.5,769C 3301.83,768.333 3313.17,768.333 3324.5,769C 3309.37,785.802 3293.87,802.302 3278,818.5C 3277.83,819.333 3277.67,820.167 3277.5,821C 3287.14,842.903 3296.97,864.737 3307,886.5C 3307.81,888.436 3308.31,890.436 3308.5,892.5C 3299.48,892.832 3290.48,892.498 3281.5,891.5C 3273.92,873.353 3266.09,855.353 3258,837.5C 3251.67,844.5 3245.33,851.5 3239,858.5C 3237.08,869.787 3235.58,881.12 3234.5,892.5C 3226.17,892.5 3217.83,892.5 3209.5,892.5C 3214.84,851.118 3220.51,809.785 3226.5,768.5 Z"/></g>
<g><path style="opacity:0.959" fill="#4c4c4c" d="M 3340.5,768.5 C 3348.84,768.334 3357.17,768.5 3365.5,769C 3359.3,809.734 3353.47,850.567 3348,891.5C 3339.92,892.482 3331.75,892.816 3323.5,892.5C 3328.52,851.04 3334.18,809.707 3340.5,768.5 Z"/></g>
<g><path style="opacity:0.964" fill="#4c4c4c" d="M 3391.5,768.5 C 3399.42,768.185 3407.25,768.518 3415,769.5C 3427.33,794.167 3439.67,818.833 3452,843.5C 3456.4,818.665 3460.23,793.665 3463.5,768.5C 3471.84,768.334 3480.17,768.5 3488.5,769C 3482.46,809.799 3476.46,850.632 3470.5,891.5C 3463.28,892.812 3456.11,892.812 3449,891.5C 3436,865.5 3423,839.5 3410,813.5C 3405.76,839.778 3401.92,866.111 3398.5,892.5C 3390.5,892.5 3382.5,892.5 3374.5,892.5C 3379.52,851.04 3385.18,809.707 3391.5,768.5 Z"/></g>
<g><path style="opacity:0.958" fill="#4c4c4c" d="M 3513.5,768.5 C 3521.83,768.5 3530.17,768.5 3538.5,768.5C 3533.21,809.887 3527.54,851.221 3521.5,892.5C 3513.17,892.5 3504.83,892.5 3496.5,892.5C 3502.54,851.221 3508.21,809.887 3513.5,768.5 Z"/></g>
</svg>
